<mxfile host="Electron" modified="2024-04-12T17:25:08.125Z" agent="Mozilla/5.0 (X11; Linux x86_64) AppleWebKit/537.36 (KHTML, like Gecko) draw.io/22.1.16 Chrome/120.0.6099.109 Electron/28.1.0 Safari/537.36" etag="OHsts8ei424AtksvhZmy" version="22.1.16" type="device">
  <diagram name="Page-1" id="2TraO366z-0CEIr0bA39">
    <mxGraphModel dx="3333" dy="2005" grid="0" gridSize="10" guides="0" tooltips="1" connect="1" arrows="1" fold="1" page="1" pageScale="1" pageWidth="3300" pageHeight="2339" background="#000000" math="0" shadow="0">
      <root>
        <mxCell id="0" />
        <mxCell id="1" parent="0" />
        <mxCell id="eaaw5Dx5aASEszvTUQku-79" value="" style="rounded=0;whiteSpace=wrap;html=1;fillColor=#020203;strokeWidth=0.5;" vertex="1" parent="1">
          <mxGeometry x="1510" y="780" width="260" height="10" as="geometry" />
        </mxCell>
        <mxCell id="eaaw5Dx5aASEszvTUQku-65" value="" style="endArrow=none;html=1;rounded=0;strokeWidth=0.5;" edge="1" parent="1">
          <mxGeometry width="50" height="50" relative="1" as="geometry">
            <mxPoint x="1890" y="770" as="sourcePoint" />
            <mxPoint x="1480" y="770" as="targetPoint" />
          </mxGeometry>
        </mxCell>
        <mxCell id="eaaw5Dx5aASEszvTUQku-1" value="" style="endArrow=none;html=1;rounded=0;strokeWidth=0.5;" edge="1" parent="1">
          <mxGeometry width="50" height="50" relative="1" as="geometry">
            <mxPoint x="1080" y="1040" as="sourcePoint" />
            <mxPoint x="2200" y="1040" as="targetPoint" />
          </mxGeometry>
        </mxCell>
        <mxCell id="eaaw5Dx5aASEszvTUQku-2" value="" style="endArrow=none;html=1;rounded=0;strokeWidth=0.5;" edge="1" parent="1">
          <mxGeometry width="50" height="50" relative="1" as="geometry">
            <mxPoint x="1080" y="1040" as="sourcePoint" />
            <mxPoint x="1000" y="1120" as="targetPoint" />
          </mxGeometry>
        </mxCell>
        <mxCell id="eaaw5Dx5aASEszvTUQku-3" value="" style="endArrow=none;html=1;rounded=0;strokeWidth=0.5;" edge="1" parent="1">
          <mxGeometry width="50" height="50" relative="1" as="geometry">
            <mxPoint x="1080" y="1200" as="sourcePoint" />
            <mxPoint x="1000" y="1120" as="targetPoint" />
          </mxGeometry>
        </mxCell>
        <mxCell id="eaaw5Dx5aASEszvTUQku-4" value="" style="endArrow=none;html=1;rounded=0;strokeWidth=0.5;" edge="1" parent="1">
          <mxGeometry width="50" height="50" relative="1" as="geometry">
            <mxPoint x="1080" y="1200" as="sourcePoint" />
            <mxPoint x="2200" y="1200" as="targetPoint" />
          </mxGeometry>
        </mxCell>
        <mxCell id="eaaw5Dx5aASEszvTUQku-5" value="" style="endArrow=none;html=1;rounded=0;strokeWidth=0.5;" edge="1" parent="1">
          <mxGeometry width="50" height="50" relative="1" as="geometry">
            <mxPoint x="2200" y="1040" as="sourcePoint" />
            <mxPoint x="2280" y="1120" as="targetPoint" />
          </mxGeometry>
        </mxCell>
        <mxCell id="eaaw5Dx5aASEszvTUQku-6" value="" style="endArrow=none;html=1;rounded=0;strokeWidth=0.5;" edge="1" parent="1">
          <mxGeometry width="50" height="50" relative="1" as="geometry">
            <mxPoint x="2200" y="1200" as="sourcePoint" />
            <mxPoint x="2280" y="1120" as="targetPoint" />
          </mxGeometry>
        </mxCell>
        <mxCell id="eaaw5Dx5aASEszvTUQku-9" value="" style="ellipse;whiteSpace=wrap;html=1;aspect=fixed;fillColor=#020203;strokeWidth=0.5;" vertex="1" parent="1">
          <mxGeometry x="640" y="970" width="60" height="60" as="geometry" />
        </mxCell>
        <mxCell id="eaaw5Dx5aASEszvTUQku-10" value="" style="ellipse;whiteSpace=wrap;html=1;aspect=fixed;fillColor=#020203;strokeWidth=0.5;" vertex="1" parent="1">
          <mxGeometry x="2560" y="970" width="60" height="60" as="geometry" />
        </mxCell>
        <mxCell id="eaaw5Dx5aASEszvTUQku-14" value="" style="ellipse;whiteSpace=wrap;html=1;aspect=fixed;fillColor=#020203;strokeWidth=0.5;" vertex="1" parent="1">
          <mxGeometry x="340" y="1110" width="40" height="40" as="geometry" />
        </mxCell>
        <mxCell id="eaaw5Dx5aASEszvTUQku-16" value="" style="ellipse;whiteSpace=wrap;html=1;aspect=fixed;fillColor=#020203;strokeWidth=0.5;" vertex="1" parent="1">
          <mxGeometry x="2860" y="1110" width="40" height="40" as="geometry" />
        </mxCell>
        <mxCell id="eaaw5Dx5aASEszvTUQku-17" value="" style="ellipse;whiteSpace=wrap;html=1;aspect=fixed;fillColor=#020203;strokeWidth=0.5;" vertex="1" parent="1">
          <mxGeometry x="1210" y="1100" width="40" height="40" as="geometry" />
        </mxCell>
        <mxCell id="eaaw5Dx5aASEszvTUQku-18" value="" style="ellipse;whiteSpace=wrap;html=1;aspect=fixed;fillColor=#020203;strokeWidth=0.5;" vertex="1" parent="1">
          <mxGeometry x="2030" y="1100" width="40" height="40" as="geometry" />
        </mxCell>
        <mxCell id="eaaw5Dx5aASEszvTUQku-21" value="" style="endArrow=none;html=1;rounded=0;entryX=0.5;entryY=0;entryDx=0;entryDy=0;exitX=0.5;exitY=0;exitDx=0;exitDy=0;strokeWidth=0.5;" edge="1" parent="1" source="eaaw5Dx5aASEszvTUQku-9" target="eaaw5Dx5aASEszvTUQku-24">
          <mxGeometry width="50" height="50" relative="1" as="geometry">
            <mxPoint x="680" y="1010" as="sourcePoint" />
            <mxPoint x="1160" y="1110" as="targetPoint" />
          </mxGeometry>
        </mxCell>
        <mxCell id="eaaw5Dx5aASEszvTUQku-8" value="" style="ellipse;whiteSpace=wrap;html=1;aspect=fixed;fillColor=#020203;strokeWidth=0.5;" vertex="1" parent="1">
          <mxGeometry x="1280" y="970" width="60" height="60" as="geometry" />
        </mxCell>
        <mxCell id="eaaw5Dx5aASEszvTUQku-7" value="" style="ellipse;whiteSpace=wrap;html=1;aspect=fixed;fillColor=#020203;strokeWidth=0.5;" vertex="1" parent="1">
          <mxGeometry x="1940" y="970" width="60" height="60" as="geometry" />
        </mxCell>
        <mxCell id="eaaw5Dx5aASEszvTUQku-20" value="" style="endArrow=none;html=1;rounded=0;exitX=0.5;exitY=1;exitDx=0;exitDy=0;entryX=1;entryY=1;entryDx=0;entryDy=0;strokeWidth=0.5;" edge="1" parent="1" source="eaaw5Dx5aASEszvTUQku-8" target="eaaw5Dx5aASEszvTUQku-17">
          <mxGeometry width="50" height="50" relative="1" as="geometry">
            <mxPoint x="1302" y="1032" as="sourcePoint" />
            <mxPoint x="1150" y="1100" as="targetPoint" />
          </mxGeometry>
        </mxCell>
        <mxCell id="eaaw5Dx5aASEszvTUQku-13" value="" style="endArrow=none;html=1;rounded=0;exitX=0;exitY=0;exitDx=0;exitDy=0;entryX=0;entryY=0;entryDx=0;entryDy=0;strokeWidth=0.5;" edge="1" parent="1" source="eaaw5Dx5aASEszvTUQku-8" target="eaaw5Dx5aASEszvTUQku-17">
          <mxGeometry width="50" height="50" relative="1" as="geometry">
            <mxPoint x="770" y="1770" as="sourcePoint" />
            <mxPoint x="1890" y="1770" as="targetPoint" />
          </mxGeometry>
        </mxCell>
        <mxCell id="eaaw5Dx5aASEszvTUQku-25" value="" style="ellipse;whiteSpace=wrap;html=1;aspect=fixed;fillColor=#020203;strokeWidth=0.5;" vertex="1" parent="1">
          <mxGeometry x="2190" y="1075" width="90" height="90" as="geometry" />
        </mxCell>
        <mxCell id="eaaw5Dx5aASEszvTUQku-26" value="" style="endArrow=none;html=1;rounded=0;entryX=0.5;entryY=1;entryDx=0;entryDy=0;exitX=0.5;exitY=1;exitDx=0;exitDy=0;strokeWidth=0.5;" edge="1" parent="1" source="eaaw5Dx5aASEszvTUQku-9" target="eaaw5Dx5aASEszvTUQku-24">
          <mxGeometry width="50" height="50" relative="1" as="geometry">
            <mxPoint x="690" y="1020" as="sourcePoint" />
            <mxPoint x="1005" y="1080" as="targetPoint" />
          </mxGeometry>
        </mxCell>
        <mxCell id="eaaw5Dx5aASEszvTUQku-27" value="" style="endArrow=none;html=1;rounded=0;entryX=0.5;entryY=0;entryDx=0;entryDy=0;exitX=0.5;exitY=0;exitDx=0;exitDy=0;strokeWidth=0.5;" edge="1" parent="1" source="eaaw5Dx5aASEszvTUQku-14" target="eaaw5Dx5aASEszvTUQku-9">
          <mxGeometry width="50" height="50" relative="1" as="geometry">
            <mxPoint x="690" y="1100" as="sourcePoint" />
            <mxPoint x="1005" y="1170" as="targetPoint" />
          </mxGeometry>
        </mxCell>
        <mxCell id="eaaw5Dx5aASEszvTUQku-28" value="" style="endArrow=none;html=1;rounded=0;entryX=0.5;entryY=1;entryDx=0;entryDy=0;exitX=0.5;exitY=1;exitDx=0;exitDy=0;strokeWidth=0.5;" edge="1" parent="1" source="eaaw5Dx5aASEszvTUQku-14" target="eaaw5Dx5aASEszvTUQku-9">
          <mxGeometry width="50" height="50" relative="1" as="geometry">
            <mxPoint x="385" y="1090" as="sourcePoint" />
            <mxPoint x="690" y="1020" as="targetPoint" />
          </mxGeometry>
        </mxCell>
        <mxCell id="eaaw5Dx5aASEszvTUQku-29" value="" style="endArrow=none;html=1;rounded=0;exitX=1;exitY=0;exitDx=0;exitDy=0;entryX=1;entryY=0;entryDx=0;entryDy=0;strokeWidth=0.5;" edge="1" parent="1" source="eaaw5Dx5aASEszvTUQku-7" target="eaaw5Dx5aASEszvTUQku-18">
          <mxGeometry width="50" height="50" relative="1" as="geometry">
            <mxPoint x="1299" y="1049" as="sourcePoint" />
            <mxPoint x="1196" y="1116" as="targetPoint" />
          </mxGeometry>
        </mxCell>
        <mxCell id="eaaw5Dx5aASEszvTUQku-31" value="" style="endArrow=none;html=1;rounded=0;exitX=0;exitY=1;exitDx=0;exitDy=0;entryX=0;entryY=1;entryDx=0;entryDy=0;strokeWidth=0.5;" edge="1" parent="1" source="eaaw5Dx5aASEszvTUQku-7" target="eaaw5Dx5aASEszvTUQku-18">
          <mxGeometry width="50" height="50" relative="1" as="geometry">
            <mxPoint x="2001" y="1049" as="sourcePoint" />
            <mxPoint x="2104" y="1116" as="targetPoint" />
            <Array as="points">
              <mxPoint x="2000" y="1090" />
            </Array>
          </mxGeometry>
        </mxCell>
        <mxCell id="eaaw5Dx5aASEszvTUQku-32" value="" style="endArrow=none;html=1;rounded=0;exitX=0;exitY=0;exitDx=0;exitDy=0;entryX=0;entryY=0;entryDx=0;entryDy=0;strokeWidth=0.5;" edge="1" parent="1" source="eaaw5Dx5aASEszvTUQku-23" target="eaaw5Dx5aASEszvTUQku-7">
          <mxGeometry width="50" height="50" relative="1" as="geometry">
            <mxPoint x="1959" y="1091" as="sourcePoint" />
            <mxPoint x="2090" y="1150" as="targetPoint" />
          </mxGeometry>
        </mxCell>
        <mxCell id="eaaw5Dx5aASEszvTUQku-33" value="" style="endArrow=none;html=1;rounded=0;exitX=1;exitY=0.5;exitDx=0;exitDy=0;entryX=1;entryY=0.5;entryDx=0;entryDy=0;strokeWidth=0.5;" edge="1" parent="1" source="eaaw5Dx5aASEszvTUQku-23" target="eaaw5Dx5aASEszvTUQku-7">
          <mxGeometry width="50" height="50" relative="1" as="geometry">
            <mxPoint x="1969" y="1101" as="sourcePoint" />
            <mxPoint x="2100" y="1160" as="targetPoint" />
          </mxGeometry>
        </mxCell>
        <mxCell id="eaaw5Dx5aASEszvTUQku-34" value="" style="endArrow=none;html=1;rounded=0;exitX=0.5;exitY=0;exitDx=0;exitDy=0;entryX=0.5;entryY=0;entryDx=0;entryDy=0;strokeWidth=0.5;" edge="1" parent="1" source="eaaw5Dx5aASEszvTUQku-25" target="eaaw5Dx5aASEszvTUQku-10">
          <mxGeometry width="50" height="50" relative="1" as="geometry">
            <mxPoint x="2001" y="1049" as="sourcePoint" />
            <mxPoint x="2104" y="1116" as="targetPoint" />
          </mxGeometry>
        </mxCell>
        <mxCell id="eaaw5Dx5aASEszvTUQku-35" value="" style="endArrow=none;html=1;rounded=0;exitX=0.5;exitY=1;exitDx=0;exitDy=0;entryX=0.5;entryY=1;entryDx=0;entryDy=0;strokeWidth=0.5;" edge="1" parent="1" source="eaaw5Dx5aASEszvTUQku-25" target="eaaw5Dx5aASEszvTUQku-10">
          <mxGeometry width="50" height="50" relative="1" as="geometry">
            <mxPoint x="2285" y="1080" as="sourcePoint" />
            <mxPoint x="2600" y="1040" as="targetPoint" />
          </mxGeometry>
        </mxCell>
        <mxCell id="eaaw5Dx5aASEszvTUQku-36" value="" style="endArrow=none;html=1;rounded=0;exitX=0.5;exitY=1;exitDx=0;exitDy=0;entryX=0.5;entryY=1;entryDx=0;entryDy=0;strokeWidth=0.5;" edge="1" parent="1" source="eaaw5Dx5aASEszvTUQku-10" target="eaaw5Dx5aASEszvTUQku-16">
          <mxGeometry width="50" height="50" relative="1" as="geometry">
            <mxPoint x="2285" y="1170" as="sourcePoint" />
            <mxPoint x="2600" y="1100" as="targetPoint" />
          </mxGeometry>
        </mxCell>
        <mxCell id="eaaw5Dx5aASEszvTUQku-37" value="" style="endArrow=none;html=1;rounded=0;exitX=0.5;exitY=0;exitDx=0;exitDy=0;entryX=0.5;entryY=0;entryDx=0;entryDy=0;strokeWidth=0.5;" edge="1" parent="1" source="eaaw5Dx5aASEszvTUQku-10" target="eaaw5Dx5aASEszvTUQku-16">
          <mxGeometry width="50" height="50" relative="1" as="geometry">
            <mxPoint x="2600" y="1100" as="sourcePoint" />
            <mxPoint x="2890" y="1160" as="targetPoint" />
          </mxGeometry>
        </mxCell>
        <mxCell id="eaaw5Dx5aASEszvTUQku-38" value="" style="endArrow=none;html=1;rounded=0;exitX=0;exitY=0.5;exitDx=0;exitDy=0;entryX=0;entryY=0.5;entryDx=0;entryDy=0;strokeWidth=0.5;" edge="1" parent="1" source="eaaw5Dx5aASEszvTUQku-22" target="eaaw5Dx5aASEszvTUQku-8">
          <mxGeometry width="50" height="50" relative="1" as="geometry">
            <mxPoint x="1320" y="1100" as="sourcePoint" />
            <mxPoint x="1224" y="1144" as="targetPoint" />
          </mxGeometry>
        </mxCell>
        <mxCell id="eaaw5Dx5aASEszvTUQku-39" value="" style="endArrow=none;html=1;rounded=0;exitX=1;exitY=0;exitDx=0;exitDy=0;entryX=1;entryY=0;entryDx=0;entryDy=0;strokeWidth=0.5;" edge="1" parent="1" source="eaaw5Dx5aASEszvTUQku-22" target="eaaw5Dx5aASEszvTUQku-8">
          <mxGeometry width="50" height="50" relative="1" as="geometry">
            <mxPoint x="1355" y="1170" as="sourcePoint" />
            <mxPoint x="1299" y="1091" as="targetPoint" />
          </mxGeometry>
        </mxCell>
        <mxCell id="eaaw5Dx5aASEszvTUQku-40" value="" style="ellipse;whiteSpace=wrap;html=1;aspect=fixed;fillColor=#020203;strokeWidth=0.5;" vertex="1" parent="1">
          <mxGeometry x="400" y="1450" width="30" height="30" as="geometry" />
        </mxCell>
        <mxCell id="eaaw5Dx5aASEszvTUQku-41" value="" style="ellipse;whiteSpace=wrap;html=1;aspect=fixed;fillColor=#020203;strokeWidth=0.5;" vertex="1" parent="1">
          <mxGeometry x="1220" y="1450" width="30" height="30" as="geometry" />
        </mxCell>
        <mxCell id="eaaw5Dx5aASEszvTUQku-42" value="" style="ellipse;whiteSpace=wrap;html=1;aspect=fixed;fillColor=#020203;strokeWidth=0.5;" vertex="1" parent="1">
          <mxGeometry x="2030" y="1450" width="30" height="30" as="geometry" />
        </mxCell>
        <mxCell id="eaaw5Dx5aASEszvTUQku-43" value="" style="ellipse;whiteSpace=wrap;html=1;aspect=fixed;fillColor=#020203;strokeWidth=0.5;" vertex="1" parent="1">
          <mxGeometry x="2810" y="1450" width="30" height="30" as="geometry" />
        </mxCell>
        <mxCell id="eaaw5Dx5aASEszvTUQku-44" value="" style="endArrow=none;html=1;rounded=0;exitX=0;exitY=0.5;exitDx=0;exitDy=0;entryX=0;entryY=0.5;entryDx=0;entryDy=0;strokeWidth=0.5;" edge="1" parent="1" source="eaaw5Dx5aASEszvTUQku-17" target="eaaw5Dx5aASEszvTUQku-41">
          <mxGeometry width="50" height="50" relative="1" as="geometry">
            <mxPoint x="1299" y="1049" as="sourcePoint" />
            <mxPoint x="1226" y="1116" as="targetPoint" />
          </mxGeometry>
        </mxCell>
        <mxCell id="eaaw5Dx5aASEszvTUQku-45" value="" style="endArrow=none;html=1;rounded=0;exitX=1;exitY=0.5;exitDx=0;exitDy=0;entryX=1;entryY=0.5;entryDx=0;entryDy=0;strokeWidth=0.5;" edge="1" parent="1" source="eaaw5Dx5aASEszvTUQku-17" target="eaaw5Dx5aASEszvTUQku-41">
          <mxGeometry width="50" height="50" relative="1" as="geometry">
            <mxPoint x="1260" y="1260" as="sourcePoint" />
            <mxPoint x="1270" y="1605" as="targetPoint" />
          </mxGeometry>
        </mxCell>
        <mxCell id="eaaw5Dx5aASEszvTUQku-46" value="" style="endArrow=none;html=1;rounded=0;exitX=0;exitY=0.5;exitDx=0;exitDy=0;entryX=0;entryY=0.5;entryDx=0;entryDy=0;strokeWidth=0.5;" edge="1" parent="1" source="eaaw5Dx5aASEszvTUQku-14" target="eaaw5Dx5aASEszvTUQku-40">
          <mxGeometry width="50" height="50" relative="1" as="geometry">
            <mxPoint x="1220" y="1130" as="sourcePoint" />
            <mxPoint x="1230" y="1475" as="targetPoint" />
          </mxGeometry>
        </mxCell>
        <mxCell id="eaaw5Dx5aASEszvTUQku-47" value="" style="endArrow=none;html=1;rounded=0;exitX=1;exitY=0.5;exitDx=0;exitDy=0;entryX=1;entryY=0.5;entryDx=0;entryDy=0;strokeWidth=0.5;" edge="1" parent="1" source="eaaw5Dx5aASEszvTUQku-14" target="eaaw5Dx5aASEszvTUQku-40">
          <mxGeometry width="50" height="50" relative="1" as="geometry">
            <mxPoint x="350" y="1140" as="sourcePoint" />
            <mxPoint x="410" y="1475" as="targetPoint" />
          </mxGeometry>
        </mxCell>
        <mxCell id="eaaw5Dx5aASEszvTUQku-48" value="" style="endArrow=none;html=1;rounded=0;entryX=0;entryY=0.5;entryDx=0;entryDy=0;exitX=0;exitY=0.5;exitDx=0;exitDy=0;strokeWidth=0.5;" edge="1" parent="1" source="eaaw5Dx5aASEszvTUQku-18" target="eaaw5Dx5aASEszvTUQku-42">
          <mxGeometry width="50" height="50" relative="1" as="geometry">
            <mxPoint x="2080" y="1220" as="sourcePoint" />
            <mxPoint x="2170" y="1475" as="targetPoint" />
          </mxGeometry>
        </mxCell>
        <mxCell id="eaaw5Dx5aASEszvTUQku-49" value="" style="endArrow=none;html=1;rounded=0;exitX=1;exitY=0.5;exitDx=0;exitDy=0;entryX=1;entryY=0.5;entryDx=0;entryDy=0;strokeWidth=0.5;" edge="1" parent="1" source="eaaw5Dx5aASEszvTUQku-18" target="eaaw5Dx5aASEszvTUQku-42">
          <mxGeometry width="50" height="50" relative="1" as="geometry">
            <mxPoint x="2150" y="1140" as="sourcePoint" />
            <mxPoint x="2200" y="1475" as="targetPoint" />
          </mxGeometry>
        </mxCell>
        <mxCell id="eaaw5Dx5aASEszvTUQku-50" value="" style="endArrow=none;html=1;rounded=0;exitX=1;exitY=0.5;exitDx=0;exitDy=0;entryX=1;entryY=0.5;entryDx=0;entryDy=0;strokeWidth=0.5;" edge="1" parent="1" source="eaaw5Dx5aASEszvTUQku-16" target="eaaw5Dx5aASEszvTUQku-43">
          <mxGeometry width="50" height="50" relative="1" as="geometry">
            <mxPoint x="2710" y="1150" as="sourcePoint" />
            <mxPoint x="2770" y="1485" as="targetPoint" />
          </mxGeometry>
        </mxCell>
        <mxCell id="eaaw5Dx5aASEszvTUQku-51" value="" style="endArrow=none;html=1;rounded=0;exitX=0;exitY=0.5;exitDx=0;exitDy=0;entryX=0;entryY=0.5;entryDx=0;entryDy=0;strokeWidth=0.5;" edge="1" parent="1" source="eaaw5Dx5aASEszvTUQku-16" target="eaaw5Dx5aASEszvTUQku-43">
          <mxGeometry width="50" height="50" relative="1" as="geometry">
            <mxPoint x="2750" y="1150" as="sourcePoint" />
            <mxPoint x="2800" y="1485" as="targetPoint" />
          </mxGeometry>
        </mxCell>
        <mxCell id="eaaw5Dx5aASEszvTUQku-53" value="" style="endArrow=none;html=1;rounded=0;strokeWidth=0.5;" edge="1" parent="1">
          <mxGeometry width="50" height="50" relative="1" as="geometry">
            <mxPoint x="1620" y="840" as="sourcePoint" />
            <mxPoint x="1620" y="1040" as="targetPoint" />
          </mxGeometry>
        </mxCell>
        <mxCell id="eaaw5Dx5aASEszvTUQku-54" value="" style="endArrow=none;html=1;rounded=0;strokeWidth=0.5;" edge="1" parent="1">
          <mxGeometry width="50" height="50" relative="1" as="geometry">
            <mxPoint x="1660" y="840" as="sourcePoint" />
            <mxPoint x="1660" y="1040" as="targetPoint" />
          </mxGeometry>
        </mxCell>
        <mxCell id="eaaw5Dx5aASEszvTUQku-57" value="" style="rounded=0;whiteSpace=wrap;html=1;fillColor=#08070A;strokeWidth=0.5;" vertex="1" parent="1">
          <mxGeometry x="1610" y="820" width="60" height="20" as="geometry" />
        </mxCell>
        <mxCell id="eaaw5Dx5aASEszvTUQku-58" value="" style="ellipse;whiteSpace=wrap;html=1;aspect=fixed;fillColor=#020203;strokeWidth=0.5;" vertex="1" parent="1">
          <mxGeometry x="1610" y="760" width="60" height="60" as="geometry" />
        </mxCell>
        <mxCell id="eaaw5Dx5aASEszvTUQku-59" value="" style="endArrow=none;html=1;rounded=0;exitX=0.023;exitY=0.664;exitDx=0;exitDy=0;exitPerimeter=0;strokeWidth=0.5;" edge="1" parent="1" source="eaaw5Dx5aASEszvTUQku-58">
          <mxGeometry width="50" height="50" relative="1" as="geometry">
            <mxPoint x="1609.81" y="799.81" as="sourcePoint" />
            <mxPoint x="1479.81" y="799.81" as="targetPoint" />
          </mxGeometry>
        </mxCell>
        <mxCell id="eaaw5Dx5aASEszvTUQku-60" value="" style="endArrow=none;html=1;rounded=0;exitX=0;exitY=0.5;exitDx=0;exitDy=0;entryX=0.969;entryY=0.66;entryDx=0;entryDy=0;entryPerimeter=0;strokeWidth=0.5;" edge="1" parent="1" target="eaaw5Dx5aASEszvTUQku-58">
          <mxGeometry width="50" height="50" relative="1" as="geometry">
            <mxPoint x="1799.81" y="799.43" as="sourcePoint" />
            <mxPoint x="1669.81" y="799.43" as="targetPoint" />
          </mxGeometry>
        </mxCell>
        <mxCell id="eaaw5Dx5aASEszvTUQku-61" value="" style="endArrow=none;html=1;rounded=0;strokeWidth=0.5;" edge="1" parent="1">
          <mxGeometry width="50" height="50" relative="1" as="geometry">
            <mxPoint x="1480" y="780" as="sourcePoint" />
            <mxPoint x="1480" y="800" as="targetPoint" />
          </mxGeometry>
        </mxCell>
        <mxCell id="eaaw5Dx5aASEszvTUQku-62" value="" style="endArrow=none;html=1;rounded=0;strokeWidth=0.5;" edge="1" parent="1">
          <mxGeometry width="50" height="50" relative="1" as="geometry">
            <mxPoint x="1799.81" y="779.81" as="sourcePoint" />
            <mxPoint x="1799.81" y="799.81" as="targetPoint" />
          </mxGeometry>
        </mxCell>
        <mxCell id="eaaw5Dx5aASEszvTUQku-63" value="" style="endArrow=none;html=1;rounded=0;exitX=0.031;exitY=0.337;exitDx=0;exitDy=0;exitPerimeter=0;strokeWidth=0.5;" edge="1" parent="1" source="eaaw5Dx5aASEszvTUQku-75">
          <mxGeometry width="50" height="50" relative="1" as="geometry">
            <mxPoint x="1609.81" y="780.1899999999999" as="sourcePoint" />
            <mxPoint x="1479.81" y="780.1899999999999" as="targetPoint" />
          </mxGeometry>
        </mxCell>
        <mxCell id="eaaw5Dx5aASEszvTUQku-67" value="" style="endArrow=none;html=1;rounded=0;strokeWidth=0.5;" edge="1" parent="1">
          <mxGeometry width="50" height="50" relative="1" as="geometry">
            <mxPoint x="1360" y="750.19" as="sourcePoint" />
            <mxPoint x="1360" y="760" as="targetPoint" />
          </mxGeometry>
        </mxCell>
        <mxCell id="eaaw5Dx5aASEszvTUQku-68" value="" style="endArrow=none;html=1;rounded=0;strokeWidth=0.5;" edge="1" parent="1">
          <mxGeometry width="50" height="50" relative="1" as="geometry">
            <mxPoint x="1890" y="750" as="sourcePoint" />
            <mxPoint x="1890" y="770" as="targetPoint" />
          </mxGeometry>
        </mxCell>
        <mxCell id="eaaw5Dx5aASEszvTUQku-69" value="" style="endArrow=none;html=1;rounded=0;strokeWidth=0.5;" edge="1" parent="1">
          <mxGeometry width="50" height="50" relative="1" as="geometry">
            <mxPoint x="1890" y="750" as="sourcePoint" />
            <mxPoint x="1360" y="750" as="targetPoint" />
          </mxGeometry>
        </mxCell>
        <mxCell id="eaaw5Dx5aASEszvTUQku-71" value="" style="endArrow=none;html=1;rounded=0;strokeWidth=0.5;" edge="1" parent="1">
          <mxGeometry width="50" height="50" relative="1" as="geometry">
            <mxPoint x="1480" y="760" as="sourcePoint" />
            <mxPoint x="1480" y="770" as="targetPoint" />
          </mxGeometry>
        </mxCell>
        <mxCell id="eaaw5Dx5aASEszvTUQku-72" value="" style="endArrow=none;html=1;rounded=0;strokeWidth=0.5;" edge="1" parent="1">
          <mxGeometry width="50" height="50" relative="1" as="geometry">
            <mxPoint x="1760" y="760" as="sourcePoint" />
            <mxPoint x="1360" y="760" as="targetPoint" />
          </mxGeometry>
        </mxCell>
        <mxCell id="eaaw5Dx5aASEszvTUQku-73" value="" style="endArrow=none;html=1;rounded=0;strokeWidth=0.5;" edge="1" parent="1">
          <mxGeometry width="50" height="50" relative="1" as="geometry">
            <mxPoint x="1760" y="750" as="sourcePoint" />
            <mxPoint x="1760" y="770" as="targetPoint" />
          </mxGeometry>
        </mxCell>
        <mxCell id="eaaw5Dx5aASEszvTUQku-75" value="" style="rounded=0;whiteSpace=wrap;html=1;fillColor=#020203;strokeWidth=0.5;" vertex="1" parent="1">
          <mxGeometry x="1480" y="780" width="30" height="10" as="geometry" />
        </mxCell>
        <mxCell id="eaaw5Dx5aASEszvTUQku-78" value="" style="rounded=0;whiteSpace=wrap;html=1;fillColor=#020203;strokeWidth=0.5;" vertex="1" parent="1">
          <mxGeometry x="1770" y="780" width="30" height="10" as="geometry" />
        </mxCell>
        <mxCell id="eaaw5Dx5aASEszvTUQku-81" value="" style="endArrow=none;html=1;rounded=0;strokeWidth=0.5;" edge="1" parent="1" target="eaaw5Dx5aASEszvTUQku-82">
          <mxGeometry width="50" height="50" relative="1" as="geometry">
            <mxPoint x="1795" y="747" as="sourcePoint" />
            <mxPoint x="1938" y="653" as="targetPoint" />
            <Array as="points">
              <mxPoint x="1850" y="666" />
            </Array>
          </mxGeometry>
        </mxCell>
        <mxCell id="eaaw5Dx5aASEszvTUQku-82" value="Gun" style="text;html=1;strokeColor=none;fillColor=none;align=center;verticalAlign=middle;whiteSpace=wrap;rounded=0;fontFamily=Courier New;" vertex="1" parent="1">
          <mxGeometry x="1917" y="650" width="60" height="30" as="geometry" />
        </mxCell>
        <mxCell id="eaaw5Dx5aASEszvTUQku-83" value="" style="endArrow=none;html=1;rounded=0;strokeWidth=0.5;" edge="1" parent="1" target="eaaw5Dx5aASEszvTUQku-84">
          <mxGeometry width="50" height="50" relative="1" as="geometry">
            <mxPoint x="1472" y="785" as="sourcePoint" />
            <mxPoint x="1213" y="667" as="targetPoint" />
            <Array as="points">
              <mxPoint x="1252" y="785" />
            </Array>
          </mxGeometry>
        </mxCell>
        <mxCell id="eaaw5Dx5aASEszvTUQku-84" value="Recoil Spring" style="text;html=1;strokeColor=none;fillColor=none;align=center;verticalAlign=middle;whiteSpace=wrap;rounded=0;fontFamily=Courier New;" vertex="1" parent="1">
          <mxGeometry x="1130" y="670" width="60" height="30" as="geometry" />
        </mxCell>
        <mxCell id="eaaw5Dx5aASEszvTUQku-85" value="" style="endArrow=none;html=1;rounded=0;strokeWidth=0.5;" edge="1" parent="1" target="eaaw5Dx5aASEszvTUQku-86">
          <mxGeometry width="50" height="50" relative="1" as="geometry">
            <mxPoint x="1807" y="784" as="sourcePoint" />
            <mxPoint x="2104" y="666" as="targetPoint" />
            <Array as="points">
              <mxPoint x="2030" y="784" />
            </Array>
          </mxGeometry>
        </mxCell>
        <mxCell id="eaaw5Dx5aASEszvTUQku-86" value="Recoil Spring" style="text;html=1;strokeColor=none;fillColor=none;align=center;verticalAlign=middle;whiteSpace=wrap;rounded=0;fontFamily=Courier New;" vertex="1" parent="1">
          <mxGeometry x="2140" y="670" width="60" height="30" as="geometry" />
        </mxCell>
        <mxCell id="eaaw5Dx5aASEszvTUQku-87" value="" style="endArrow=none;html=1;rounded=0;strokeWidth=0.5;" edge="1" parent="1" target="eaaw5Dx5aASEszvTUQku-88">
          <mxGeometry width="50" height="50" relative="1" as="geometry">
            <mxPoint x="1508" y="806" as="sourcePoint" />
            <mxPoint x="1112" y="706" as="targetPoint" />
            <Array as="points">
              <mxPoint x="1468" y="830" />
              <mxPoint x="1110" y="830" />
            </Array>
          </mxGeometry>
        </mxCell>
        <mxCell id="eaaw5Dx5aASEszvTUQku-88" value="Slide Rail" style="text;html=1;strokeColor=none;fillColor=none;align=center;verticalAlign=middle;whiteSpace=wrap;rounded=0;fontFamily=Courier New;" vertex="1" parent="1">
          <mxGeometry x="980" y="720" width="60" height="30" as="geometry" />
        </mxCell>
        <mxCell id="eaaw5Dx5aASEszvTUQku-89" value="" style="endArrow=none;html=1;rounded=0;strokeWidth=0.5;" edge="1" parent="1" target="eaaw5Dx5aASEszvTUQku-90">
          <mxGeometry width="50" height="50" relative="1" as="geometry">
            <mxPoint x="1547" y="807" as="sourcePoint" />
            <mxPoint x="1037" y="778" as="targetPoint" />
            <Array as="points">
              <mxPoint x="1410" y="896" />
              <mxPoint x="1076" y="896" />
            </Array>
          </mxGeometry>
        </mxCell>
        <mxCell id="eaaw5Dx5aASEszvTUQku-90" value="Velcro and silcone strap" style="text;html=1;strokeColor=none;fillColor=none;align=center;verticalAlign=middle;whiteSpace=wrap;rounded=0;fontFamily=Courier New;" vertex="1" parent="1">
          <mxGeometry x="810" y="680" width="115" height="30" as="geometry" />
        </mxCell>
        <mxCell id="eaaw5Dx5aASEszvTUQku-91" value="" style="endArrow=none;html=1;rounded=0;strokeWidth=0.5;" edge="1" parent="1" target="eaaw5Dx5aASEszvTUQku-92">
          <mxGeometry width="50" height="50" relative="1" as="geometry">
            <mxPoint x="1609" y="814" as="sourcePoint" />
            <mxPoint x="967" y="907" as="targetPoint" />
            <Array as="points">
              <mxPoint x="1390" y="960" />
              <mxPoint x="1000" y="960" />
            </Array>
          </mxGeometry>
        </mxCell>
        <mxCell id="eaaw5Dx5aASEszvTUQku-92" value="Tilt Servo" style="text;html=1;strokeColor=none;fillColor=none;align=center;verticalAlign=middle;whiteSpace=wrap;rounded=0;fontFamily=Courier New;" vertex="1" parent="1">
          <mxGeometry x="890" y="897" width="115" height="30" as="geometry" />
        </mxCell>
        <mxCell id="eaaw5Dx5aASEszvTUQku-94" value="" style="endArrow=none;html=1;rounded=0;strokeWidth=0.5;" edge="1" parent="1" target="eaaw5Dx5aASEszvTUQku-95">
          <mxGeometry width="50" height="50" relative="1" as="geometry">
            <mxPoint x="1683" y="831" as="sourcePoint" />
            <mxPoint x="2283" y="817" as="targetPoint" />
            <Array as="points">
              <mxPoint x="2109" y="830" />
            </Array>
          </mxGeometry>
        </mxCell>
        <mxCell id="eaaw5Dx5aASEszvTUQku-95" value="Pan Servo" style="text;html=1;strokeColor=none;fillColor=none;align=center;verticalAlign=middle;whiteSpace=wrap;rounded=0;fontFamily=Courier New;" vertex="1" parent="1">
          <mxGeometry x="2150" y="740" width="115" height="30" as="geometry" />
        </mxCell>
        <mxCell id="eaaw5Dx5aASEszvTUQku-96" value="" style="endArrow=none;html=1;rounded=0;strokeWidth=0.5;" edge="1" parent="1" target="eaaw5Dx5aASEszvTUQku-97">
          <mxGeometry width="50" height="50" relative="1" as="geometry">
            <mxPoint x="2270" y="1060" as="sourcePoint" />
            <mxPoint x="2417" y="964" as="targetPoint" />
            <Array as="points">
              <mxPoint x="2270" y="990" />
            </Array>
          </mxGeometry>
        </mxCell>
        <mxCell id="eaaw5Dx5aASEszvTUQku-97" value="Hip Joint" style="text;html=1;strokeColor=none;fillColor=none;align=center;verticalAlign=middle;whiteSpace=wrap;rounded=0;fontFamily=Courier New;" vertex="1" parent="1">
          <mxGeometry x="2320" y="920" width="60" height="30" as="geometry" />
        </mxCell>
        <mxCell id="eaaw5Dx5aASEszvTUQku-98" value="" style="endArrow=none;html=1;rounded=0;strokeWidth=0.5;" edge="1" parent="1" target="eaaw5Dx5aASEszvTUQku-99">
          <mxGeometry width="50" height="50" relative="1" as="geometry">
            <mxPoint x="2589" y="962" as="sourcePoint" />
            <mxPoint x="2732" y="868" as="targetPoint" />
            <Array as="points">
              <mxPoint x="2590" y="830" />
            </Array>
          </mxGeometry>
        </mxCell>
        <mxCell id="eaaw5Dx5aASEszvTUQku-99" value="Knee Joint" style="text;html=1;strokeColor=none;fillColor=none;align=center;verticalAlign=middle;whiteSpace=wrap;rounded=0;fontFamily=Courier New;" vertex="1" parent="1">
          <mxGeometry x="2630" y="760" width="60" height="30" as="geometry" />
        </mxCell>
        <mxCell id="eaaw5Dx5aASEszvTUQku-100" value="" style="endArrow=none;html=1;rounded=0;strokeWidth=0.5;" edge="1" parent="1" target="eaaw5Dx5aASEszvTUQku-101">
          <mxGeometry width="50" height="50" relative="1" as="geometry">
            <mxPoint x="2890" y="1100" as="sourcePoint" />
            <mxPoint x="3034" y="1009" as="targetPoint" />
            <Array as="points">
              <mxPoint x="2890" y="1010" />
            </Array>
          </mxGeometry>
        </mxCell>
        <mxCell id="eaaw5Dx5aASEszvTUQku-101" value="Ankle Joint" style="text;html=1;strokeColor=none;fillColor=none;align=center;verticalAlign=middle;whiteSpace=wrap;rounded=0;fontFamily=Courier New;" vertex="1" parent="1">
          <mxGeometry x="2920" y="950" width="60" height="30" as="geometry" />
        </mxCell>
        <mxCell id="eaaw5Dx5aASEszvTUQku-102" value="" style="endArrow=none;html=1;rounded=0;strokeWidth=0.5;" edge="1" parent="1" target="eaaw5Dx5aASEszvTUQku-103">
          <mxGeometry width="50" height="50" relative="1" as="geometry">
            <mxPoint x="2852" y="1460" as="sourcePoint" />
            <mxPoint x="2995" y="1366" as="targetPoint" />
            <Array as="points">
              <mxPoint x="2910" y="1460" />
            </Array>
          </mxGeometry>
        </mxCell>
        <mxCell id="eaaw5Dx5aASEszvTUQku-103" value="Foot Ball" style="text;html=1;strokeColor=none;fillColor=none;align=center;verticalAlign=middle;whiteSpace=wrap;rounded=0;fontFamily=Courier New;" vertex="1" parent="1">
          <mxGeometry x="2974" y="1351" width="60" height="30" as="geometry" />
        </mxCell>
        <mxCell id="eaaw5Dx5aASEszvTUQku-106" value="" style="endArrow=none;html=1;rounded=0;strokeWidth=0.5;entryX=0;entryY=0.5;entryDx=0;entryDy=0;" edge="1" parent="1" target="eaaw5Dx5aASEszvTUQku-107">
          <mxGeometry width="50" height="50" relative="1" as="geometry">
            <mxPoint x="2080" y="1030" as="sourcePoint" />
            <mxPoint x="2227" y="930" as="targetPoint" />
            <Array as="points">
              <mxPoint x="2080" y="970" />
            </Array>
          </mxGeometry>
        </mxCell>
        <mxCell id="eaaw5Dx5aASEszvTUQku-107" value="Body" style="text;html=1;strokeColor=none;fillColor=none;align=center;verticalAlign=middle;whiteSpace=wrap;rounded=0;fontFamily=Courier New;" vertex="1" parent="1">
          <mxGeometry x="2120" y="930" width="60" height="30" as="geometry" />
        </mxCell>
        <mxCell id="eaaw5Dx5aASEszvTUQku-108" value="" style="endArrow=none;html=1;rounded=0;strokeWidth=0.5;" edge="1" parent="1" target="eaaw5Dx5aASEszvTUQku-109">
          <mxGeometry width="50" height="50" relative="1" as="geometry">
            <mxPoint x="2430" y="1011" as="sourcePoint" />
            <mxPoint x="2573" y="917" as="targetPoint" />
            <Array as="points">
              <mxPoint x="2430" y="940" />
            </Array>
          </mxGeometry>
        </mxCell>
        <mxCell id="eaaw5Dx5aASEszvTUQku-109" value="Limb 1" style="text;html=1;strokeColor=none;fillColor=none;align=center;verticalAlign=middle;whiteSpace=wrap;rounded=0;fontFamily=Courier New;" vertex="1" parent="1">
          <mxGeometry x="2460" y="870" width="60" height="30" as="geometry" />
        </mxCell>
        <mxCell id="eaaw5Dx5aASEszvTUQku-110" value="" style="endArrow=none;html=1;rounded=0;strokeWidth=0.5;" edge="1" parent="1" target="eaaw5Dx5aASEszvTUQku-111">
          <mxGeometry width="50" height="50" relative="1" as="geometry">
            <mxPoint x="2740" y="1030" as="sourcePoint" />
            <mxPoint x="2936" y="957" as="targetPoint" />
            <Array as="points">
              <mxPoint x="2740" y="940" />
            </Array>
          </mxGeometry>
        </mxCell>
        <mxCell id="eaaw5Dx5aASEszvTUQku-111" value="Limb 2" style="text;html=1;strokeColor=none;fillColor=none;align=center;verticalAlign=middle;whiteSpace=wrap;rounded=0;fontFamily=Courier New;" vertex="1" parent="1">
          <mxGeometry x="2770" y="880" width="60" height="30" as="geometry" />
        </mxCell>
        <mxCell id="eaaw5Dx5aASEszvTUQku-112" value="" style="endArrow=none;html=1;rounded=0;strokeWidth=0.5;" edge="1" parent="1">
          <mxGeometry width="50" height="50" relative="1" as="geometry">
            <mxPoint x="2880" y="1301" as="sourcePoint" />
            <mxPoint x="2954" y="1280" as="targetPoint" />
            <Array as="points">
              <mxPoint x="2924" y="1300" />
            </Array>
          </mxGeometry>
        </mxCell>
        <mxCell id="eaaw5Dx5aASEszvTUQku-113" value="Limb 3" style="text;html=1;strokeColor=none;fillColor=none;align=center;verticalAlign=middle;whiteSpace=wrap;rounded=0;fontFamily=Courier New;" vertex="1" parent="1">
          <mxGeometry x="2954" y="1240" width="60" height="30" as="geometry" />
        </mxCell>
        <mxCell id="eaaw5Dx5aASEszvTUQku-117" value="&lt;h1&gt;Crabbot with Auto Aim/Fire&lt;/h1&gt;&lt;p&gt;V.1&lt;/p&gt;" style="text;html=1;strokeColor=none;fillColor=none;spacing=5;spacingTop=-20;whiteSpace=wrap;overflow=hidden;rounded=0;" vertex="1" parent="1">
          <mxGeometry x="2763" y="1861" width="190" height="120" as="geometry" />
        </mxCell>
        <mxCell id="eaaw5Dx5aASEszvTUQku-119" value="" style="endArrow=none;html=1;rounded=0;" edge="1" parent="1">
          <mxGeometry width="50" height="50" relative="1" as="geometry">
            <mxPoint x="1000" y="1120" as="sourcePoint" />
            <mxPoint x="2280.8695652173915" y="1120" as="targetPoint" />
          </mxGeometry>
        </mxCell>
        <mxCell id="eaaw5Dx5aASEszvTUQku-24" value="" style="ellipse;whiteSpace=wrap;html=1;aspect=fixed;fillColor=#020203;strokeWidth=0.5;" vertex="1" parent="1">
          <mxGeometry x="1000" y="1076" width="90" height="90" as="geometry" />
        </mxCell>
        <mxCell id="eaaw5Dx5aASEszvTUQku-121" value="" style="endArrow=none;html=1;rounded=0;strokeWidth=0.5;" edge="1" parent="1">
          <mxGeometry width="50" height="50" relative="1" as="geometry">
            <mxPoint x="1346" y="1120" as="sourcePoint" />
            <mxPoint x="1370" y="1200" as="targetPoint" />
          </mxGeometry>
        </mxCell>
        <mxCell id="eaaw5Dx5aASEszvTUQku-22" value="" style="ellipse;whiteSpace=wrap;html=1;aspect=fixed;fillColor=#020203;strokeWidth=0.5;" vertex="1" parent="1">
          <mxGeometry x="1299" y="1075" width="90" height="90" as="geometry" />
        </mxCell>
        <mxCell id="eaaw5Dx5aASEszvTUQku-122" value="" style="endArrow=none;html=1;rounded=0;strokeWidth=0.5;" edge="1" parent="1">
          <mxGeometry width="50" height="50" relative="1" as="geometry">
            <mxPoint x="1938" y="1120" as="sourcePoint" />
            <mxPoint x="1910" y="1200" as="targetPoint" />
          </mxGeometry>
        </mxCell>
        <mxCell id="eaaw5Dx5aASEszvTUQku-23" value="" style="ellipse;whiteSpace=wrap;html=1;aspect=fixed;fillColor=#020203;strokeWidth=0.5;" vertex="1" parent="1">
          <mxGeometry x="1890" y="1075" width="90" height="90" as="geometry" />
        </mxCell>
        <mxCell id="eaaw5Dx5aASEszvTUQku-123" value="" style="endArrow=none;html=1;rounded=0;strokeWidth=0.5;" edge="1" parent="1" target="eaaw5Dx5aASEszvTUQku-23">
          <mxGeometry width="50" height="50" relative="1" as="geometry">
            <mxPoint x="1910" y="1040" as="sourcePoint" />
            <mxPoint x="1920" y="1210" as="targetPoint" />
          </mxGeometry>
        </mxCell>
        <mxCell id="eaaw5Dx5aASEszvTUQku-124" value="" style="endArrow=none;html=1;rounded=0;strokeWidth=0.5;" edge="1" parent="1" source="eaaw5Dx5aASEszvTUQku-22">
          <mxGeometry width="50" height="50" relative="1" as="geometry">
            <mxPoint x="1356" y="1130" as="sourcePoint" />
            <mxPoint x="1370" y="1040" as="targetPoint" />
          </mxGeometry>
        </mxCell>
      </root>
    </mxGraphModel>
  </diagram>
</mxfile>
